<svg xmlns="http://www.w3.org/2000/svg" width="760" height="500" viewBox="0 0 760 500" font-family="Helvetica,Arial,sans-serif">
<rect width="760" height="500" fill="white"/>
<line x1="78" y1="438.0" x2="528" y2="438.0" stroke="#d8d8d8" stroke-width="1"/>
<text x="69" y="442.0" font-size="12" fill="#5c5c5c" text-anchor="end">0.0</text>
<line x1="78" y1="382.0" x2="528" y2="382.0" stroke="#d8d8d8" stroke-width="1"/>
<text x="69" y="386.0" font-size="12" fill="#5c5c5c" text-anchor="end">0.1</text>
<line x1="78" y1="326.0" x2="528" y2="326.0" stroke="#d8d8d8" stroke-width="1"/>
<text x="69" y="330.0" font-size="12" fill="#5c5c5c" text-anchor="end">0.2</text>
<line x1="78" y1="270.0" x2="528" y2="270.0" stroke="#d8d8d8" stroke-width="1"/>
<text x="69" y="274.0" font-size="12" fill="#5c5c5c" text-anchor="end">0.3</text>
<line x1="78" y1="214.0" x2="528" y2="214.0" stroke="#d8d8d8" stroke-width="1"/>
<text x="69" y="218.0" font-size="12" fill="#5c5c5c" text-anchor="end">0.4</text>
<line x1="78" y1="158.0" x2="528" y2="158.0" stroke="#d8d8d8" stroke-width="1"/>
<text x="69" y="162.0" font-size="12" fill="#5c5c5c" text-anchor="end">0.5</text>
<line x1="78" y1="102.0" x2="528" y2="102.0" stroke="#d8d8d8" stroke-width="1"/>
<text x="69" y="106.0" font-size="12" fill="#5c5c5c" text-anchor="end">0.6</text>
<line x1="78" y1="46.0" x2="528" y2="46.0" stroke="#d8d8d8" stroke-width="1"/>
<text x="69" y="50.0" font-size="12" fill="#5c5c5c" text-anchor="end">0.7</text>
<line x1="78.0" y1="46" x2="78.0" y2="438" stroke="#d8d8d8" stroke-width="1"/>
<text x="78.0" y="458" font-size="12" fill="#5c5c5c" text-anchor="middle">0.0</text>
<line x1="180.3" y1="46" x2="180.3" y2="438" stroke="#d8d8d8" stroke-width="1"/>
<text x="180.3" y="458" font-size="12" fill="#5c5c5c" text-anchor="middle">0.5</text>
<line x1="282.5" y1="46" x2="282.5" y2="438" stroke="#d8d8d8" stroke-width="1"/>
<text x="282.5" y="458" font-size="12" fill="#5c5c5c" text-anchor="middle">1.0</text>
<line x1="384.8" y1="46" x2="384.8" y2="438" stroke="#d8d8d8" stroke-width="1"/>
<text x="384.8" y="458" font-size="12" fill="#5c5c5c" text-anchor="middle">1.5</text>
<line x1="487.1" y1="46" x2="487.1" y2="438" stroke="#d8d8d8" stroke-width="1"/>
<text x="487.1" y="458" font-size="12" fill="#5c5c5c" text-anchor="middle">2.0</text>
<rect x="78" y="46" width="450" height="392" fill="none" stroke="#1a1a1a" stroke-width="1.2"/>
<polyline points="253.62,46.67 254.75,49.16 255.87,51.62 257.00,54.04 258.12,56.44 259.25,58.81 260.37,61.15 261.50,63.46 262.62,65.74 263.75,67.99 264.87,70.22 265.99,72.42 267.12,74.59 268.24,76.74 269.37,78.86 270.49,80.96 271.62,83.03 272.74,85.08 273.87,87.11 274.99,89.11 276.11,91.09 277.24,93.05 278.36,94.99 279.49,96.90 280.61,98.79 281.74,100.67 282.86,102.52 283.99,104.35 285.11,106.16 286.23,107.95 287.36,109.73 288.48,111.48 289.61,113.21 290.73,114.93 291.86,116.63 292.98,118.31 294.11,119.97 295.23,121.62 296.36,123.25 297.48,124.86 298.60,126.46 299.73,128.04 300.85,129.60 301.98,131.15 303.10,132.68 304.23,134.20 305.35,135.70 306.48,137.19 307.60,138.67 308.72,140.12 309.85,141.57 310.97,143.00 312.10,144.42 313.22,145.82 314.35,147.21 315.47,148.59 316.60,149.95 317.72,151.30 318.85,152.64 319.97,153.97 321.09,155.28 322.22,156.58 323.34,157.87 324.47,159.15 325.59,160.42 326.72,161.67 327.84,162.92 328.97,164.15 330.09,165.37 331.21,166.58 332.34,167.78 333.46,168.97 334.59,170.15 335.71,171.32 336.84,172.48 337.96,173.63 339.09,174.76 340.21,175.89 341.33,177.01 342.46,178.12 343.58,179.22 344.71,180.31 345.83,181.39 346.96,182.47 348.08,183.53 349.21,184.59 350.33,185.63 351.46,186.67 352.58,187.70 353.70,188.72 354.83,189.73 355.95,190.74 357.08,191.73 358.20,192.72 359.33,193.70 360.45,194.68 361.58,195.64 362.70,196.60 363.82,197.55 364.95,198.49 366.07,199.42 367.20,200.35 368.32,201.27 369.45,202.19 370.57,203.09 371.70,203.99 372.82,204.88 373.95,205.77 375.07,206.65 376.19,207.52 377.32,208.39 378.44,209.25 379.57,210.10 380.69,210.95 381.82,211.79 382.94,212.62 384.07,213.45 385.19,214.27 386.31,215.09 387.44,215.90 388.56,216.70 389.69,217.50 390.81,218.29 391.94,219.08 393.06,219.86 394.19,220.64 395.31,221.41 396.43,222.17 397.56,222.93 398.68,223.69 399.81,224.43 400.93,225.18 402.06,225.92 403.18,226.65 404.31,227.38 405.43,228.10 406.56,228.82 407.68,229.53 408.80,230.24 409.93,230.95 411.05,231.64 412.18,232.34 413.30,233.03 414.43,233.71 415.55,234.39 416.68,235.07 417.80,235.74 418.92,236.41 420.05,237.07 421.17,237.73 422.30,238.38 423.42,239.03 424.55,239.68 425.67,240.32 426.80,240.96 427.92,241.59 429.05,242.22 430.17,242.85 431.29,243.47 432.42,244.08 433.54,244.70 434.67,245.31 435.79,245.91 436.92,246.51 438.04,247.11 439.17,247.71 440.29,248.30 441.41,248.88 442.54,249.47 443.66,250.05 444.79,250.62 445.91,251.20 447.04,251.77 448.16,252.33 449.29,252.89 450.41,253.45 451.53,254.01 452.66,254.56 453.78,255.11 454.91,255.66 456.03,256.20 457.16,256.74 458.28,257.27 459.41,257.81 460.53,258.34 461.66,258.86 462.78,259.39 463.90,259.91 465.03,260.42 466.15,260.94 467.28,261.45 468.40,261.96 469.53,262.46 470.65,262.97 471.78,263.47 472.90,263.96 474.02,264.46 475.15,264.95 476.27,265.44 477.40,265.92 478.52,266.41 479.65,266.89 480.77,267.36 481.90,267.84 483.02,268.31 484.14,268.78 485.27,269.25 486.39,269.71 487.52,270.18 488.64,270.63 489.77,271.09 490.89,271.55 492.02,272.00 493.14,272.45 494.27,272.90 495.39,273.34 496.51,273.78 497.64,274.22 498.76,274.66 499.89,275.10 501.01,275.53 502.14,275.96 503.26,276.39 504.39,276.81 505.51,277.24 506.63,277.66 507.76,278.08 508.88,278.50 510.01,278.91 511.13,279.33 512.26,279.74 513.38,280.14 514.51,280.55 515.63,280.96 516.76,281.36 517.88,281.76 519.00,282.16 520.13,282.55 521.25,282.95 522.38,283.34 523.50,283.73 524.63,284.12 525.75,284.51 526.88,284.89 528.00,285.27" fill="none" stroke="#1a1a1a" stroke-width="2" stroke-dasharray="7,4"/>
<polygon points="384.8,260.5 394.3,270.0 384.8,279.5 375.3,270.0" fill="#e07b00" stroke="#7a4300" stroke-width="2"/>
<circle cx="78.0" cy="354.0" r="7.5" fill="#2e7d32" stroke="white" stroke-width="1.6"/>
<circle cx="78.0" cy="270.0" r="7.5" fill="#2e7d32" stroke="white" stroke-width="1.6"/>
<circle cx="78.0" cy="102.0" r="7.5" fill="#2e7d32" stroke="white" stroke-width="1.6"/>
<polygon points="384.8,344.5 394.3,354.0 384.8,363.5 375.3,354.0" fill="#e07b00" stroke="#7a4300" stroke-width="2"/>
<polygon points="282.5,260.5 292.0,270.0 282.5,279.5 273.0,270.0" fill="#e07b00" stroke="#7a4300" stroke-width="2"/>
<rect x="377.8" y="179.0" width="14.0" height="14.0" fill="#c62828" stroke="white" stroke-width="1.6"/>
<rect x="377.8" y="95.0" width="14.0" height="14.0" fill="#c62828" stroke="white" stroke-width="1.6"/>
<polygon points="487.1,260.5 496.6,270.0 487.1,279.5 477.6,270.0" fill="#e07b00" stroke="#7a4300" stroke-width="2"/>
<circle cx="384.8" cy="270.0" r="15" fill="none" stroke="#4527a0" stroke-width="1.8" stroke-dasharray="3,3"/>
<text x="365.8" y="301.0" font-size="11" fill="#4527a0" text-anchor="end">&#8225; haz cell, see caption</text>
<text x="303.0" y="484" font-size="13.5" fill="#1a1a1a" text-anchor="middle">Flow velocity (m/s)</text>
<text x="18" y="242.0" font-size="13.5" fill="#1a1a1a" text-anchor="middle" transform="rotate(-90 18 242.0)">Water depth (m)</text>
<text x="78" y="28" font-size="14.5" fill="#1a1a1a" font-weight="bold">L1 hazard scalar vs. coupled L2 simulation, 9 simulated conditions</text>
<circle cx="556" cy="52" r="7.5" fill="#2e7d32" stroke="white" stroke-width="1.6"/>
<text x="570" y="56" font-size="12" fill="#1a1a1a">Agree, both FORD (3)</text>
<rect x="549" y="71" width="14" height="14" fill="#c62828" stroke="white" stroke-width="1.6"/>
<text x="570" y="82" font-size="12" fill="#1a1a1a">Agree, both NO-FORD (2)</text>
<polygon points="556,94.5 565.5,104 556,113.5 546.5,104" fill="#e07b00" stroke="#7a4300" stroke-width="2"/>
<text x="570" y="108" font-size="12" fill="#1a1a1a">Disagree (4)</text>
<text x="570" y="124" font-size="11" fill="#5c5c5c">L1 says FORD,</text>
<text x="570" y="138" font-size="11" fill="#5c5c5c">L2 says NO-FORD</text>
<line x1="548" y1="158" x2="565" y2="158" stroke="#1a1a1a" stroke-width="2" stroke-dasharray="7,4"/>
<text x="570" y="162" font-size="12" fill="#1a1a1a">L1 iso-hazard</text>
<text x="570" y="177" font-size="11" fill="#5c5c5c">D&#215;V = 0.6 m&#178;/s</text>
<line x1="548" y1="196" x2="748" y2="196" stroke="#d8d8d8" stroke-width="1"/>
<text x="548" y="216" font-size="12" fill="#1a1a1a" font-weight="bold">Agreement: 55.6%</text>
<text x="548" y="233" font-size="11" fill="#5c5c5c">5 of 9 conditions</text>
<text x="548" y="257" font-size="11" fill="#5c5c5c">All 4 disagreements run</text>
<text x="548" y="271" font-size="11" fill="#5c5c5c">one way: L1 permits,</text>
<text x="548" y="285" font-size="11" fill="#5c5c5c">L2 refuses. No reverse</text>
<text x="548" y="299" font-size="11" fill="#5c5c5c">cases in this dataset.</text>
<text x="78" y="498" font-size="9.5" fill="#8a8a8a">source: data/l2_results_from_wandb.csv (9 rows), verdict columns read as-is; threshold from l1_threshold column</text>
</svg>